<svg width="701" height="146" viewBox="0 0 701 146" fill="none" xmlns="http://www.w3.org/2000/svg">
<path d="M164 112.5V133C164 138.523 168.477 143 174 143H181C186.523 143 191 138.523 191 133V37C191 31.4772 195.477 27 201 27H215C220.523 27 225 31.4772 225 37V49.5" stroke="black" stroke-width="5"/>
<rect x="13" y="19" width="151" height="82" rx="4" fill="black"/>
<circle cx="42.5" cy="81" r="5" stroke="white" stroke-width="3"/>
<circle cx="136.5" cy="81" r="5" stroke="white" stroke-width="3"/>
<path d="M48 81H66.5L71 70L78.5 87L90 60L103 91L111.5 73L117 81H131.5" stroke="white" stroke-width="4"/>
<rect x="41" y="41" width="31" height="12" fill="white"/>
<rect x="51" y="62" width="31" height="12" transform="rotate(-90 51 62)" fill="white"/>
<rect x="104" y="41" width="31" height="12" fill="white"/>
<rect x="114" y="62" width="31" height="12" transform="rotate(-90 114 62)" fill="white"/>
<path fill-rule="evenodd" clip-rule="evenodd" d="M132 10H167C169.761 10 172 12.2386 172 15V105C172 107.761 169.761 110 167 110H10C7.23858 110 5 107.761 5 105V15C5 12.2386 7.23857 10 10 10H45V5H10C4.47715 5 0 9.47715 0 15V105C0 110.523 4.47715 115 10 115H167C172.523 115 177 110.523 177 105V15C177 9.47715 172.523 5 167 5H132V10Z" fill="black"/>
<path d="M58 115H118V126C118 128.761 115.761 131 113 131H63C60.2386 131 58 128.761 58 126V115Z" fill="black"/>
<rect x="37" y="136" width="103" height="10" rx="5" fill="black"/>
<rect x="32" width="36" height="14" rx="7" fill="black"/>
<rect x="109" width="36" height="14" rx="7" fill="black"/>
<rect x="208.5" y="49.5" width="33" height="45" rx="5.5" stroke="black" stroke-width="5"/>
<line x1="241" y1="72.5" x2="209" y2="72.5" stroke="black" stroke-width="5"/>
<line x1="225" y1="62" x2="225" y2="47" stroke="black" stroke-width="5"/>
<path d="M280.121 33.3086C277.551 33.3086 275.546 34.3659 274.105 36.4805C272.665 38.5768 271.945 41.4753 271.945 45.1758C271.945 52.8685 274.871 56.7148 280.723 56.7148C282.491 56.7148 284.204 56.4688 285.863 55.9766C287.522 55.4844 289.19 54.8919 290.867 54.1992V63.332C287.531 64.8086 283.758 65.5469 279.547 65.5469C273.513 65.5469 268.883 63.7969 265.656 60.2969C262.448 56.7969 260.844 51.7383 260.844 45.1211C260.844 40.9831 261.618 37.3464 263.168 34.2109C264.736 31.0755 266.978 28.6693 269.895 26.9922C272.829 25.2969 276.275 24.4492 280.23 24.4492C284.551 24.4492 288.68 25.388 292.617 27.2656L289.309 35.7695C287.832 35.0768 286.355 34.4935 284.879 34.0195C283.402 33.5456 281.816 33.3086 280.121 33.3086ZM336.094 44.957C336.094 51.6836 334.444 56.7969 331.145 60.2969C327.845 63.7969 323.014 65.5469 316.652 65.5469C310.382 65.5469 305.569 63.7878 302.215 60.2695C298.879 56.7513 297.211 51.6289 297.211 44.9023C297.211 38.2487 298.87 33.1719 302.188 29.6719C305.523 26.1536 310.363 24.3945 316.707 24.3945C323.069 24.3945 327.891 26.1354 331.172 29.6172C334.453 33.099 336.094 38.2122 336.094 44.957ZM308.586 44.957C308.586 52.6862 311.275 56.5508 316.652 56.5508C319.387 56.5508 321.41 55.612 322.723 53.7344C324.053 51.8568 324.719 48.931 324.719 44.957C324.719 40.9648 324.044 38.0208 322.695 36.125C321.365 34.2109 319.368 33.2539 316.707 33.2539C311.293 33.2539 308.586 37.1549 308.586 44.957ZM365.762 25.0234H377.848L364.75 65H352.035L338.992 25.0234H351.133L356.574 45.2852C357.704 49.7878 358.324 52.9232 358.434 54.6914C358.561 53.4154 358.816 51.8203 359.199 49.9062C359.582 47.9922 359.919 46.4883 360.211 45.3945L365.762 25.0234ZM382.195 65V25.0234H393.051V65H382.195ZM435.652 44.1641C435.652 50.8359 433.811 55.9766 430.129 59.5859C426.465 63.1953 421.306 65 414.652 65H401.719V25.0234H415.555C421.971 25.0234 426.921 26.6641 430.402 29.9453C433.902 33.2266 435.652 37.9661 435.652 44.1641ZM424.441 44.5469C424.441 40.8828 423.712 38.1667 422.254 36.3984C420.814 34.6302 418.617 33.7461 415.664 33.7461H412.52V56.1406H414.926C418.207 56.1406 420.613 55.1927 422.145 53.2969C423.676 51.3828 424.441 48.4661 424.441 44.5469ZM442.844 65V25.0234H453.699V65H442.844ZM486.895 65L484.926 57.5078H471.938L469.914 65H458.047L471.09 24.8594H485.5L498.707 65H486.895ZM482.684 48.6484L480.961 42.0859C480.56 40.6276 480.068 38.7409 479.484 36.4258C478.919 34.1107 478.546 32.4518 478.363 31.4492C478.199 32.3789 477.871 33.9102 477.379 36.043C476.905 38.1758 475.839 42.3776 474.18 48.6484H482.684Z" fill="black"/>
<path d="M286.055 120H262.32V80.0234H286.055V88.6914H273.121V94.9805H285.098V103.648H273.121V111.195H286.055V120ZM329.066 120H316.57L308.777 107.504L301.066 120H288.844L302.105 99.5469L289.637 80.0234H301.613L308.832 92.3828L315.777 80.0234H328.109L315.449 100.395L329.066 120ZM362.59 92.7383C362.59 97.2044 361.268 100.659 358.625 103.102C356 105.526 352.263 106.738 347.414 106.738H344.379V120H333.578V80.0234H347.414C352.464 80.0234 356.255 81.1263 358.789 83.332C361.323 85.5378 362.59 88.6732 362.59 92.7383ZM344.379 97.9336H346.348C347.97 97.9336 349.255 97.4779 350.203 96.5664C351.169 95.6549 351.652 94.3971 351.652 92.793C351.652 90.0951 350.158 88.7461 347.168 88.7461H344.379V97.9336ZM392.695 120H368.961V80.0234H392.695V88.6914H379.762V94.9805H391.738V103.648H379.762V111.195H392.695V120ZM410.496 105.453V120H399.695V80.0234H412.793C423.658 80.0234 429.09 83.9609 429.09 91.8359C429.09 96.4661 426.829 100.048 422.309 102.582L433.957 120H421.707L413.23 105.453H410.496ZM410.496 97.332H412.52C416.293 97.332 418.18 95.6641 418.18 92.3281C418.18 89.5755 416.329 88.1992 412.629 88.1992H410.496V97.332ZM455.23 120H444.43V88.8555H434.668V80.0234H464.965V88.8555H455.23V120ZM511.367 107.859C511.367 110.339 510.738 112.544 509.48 114.477C508.223 116.391 506.409 117.885 504.039 118.961C501.669 120.018 498.889 120.547 495.699 120.547C493.038 120.547 490.805 120.365 489 120C487.195 119.617 485.318 118.961 483.367 118.031V108.406C485.427 109.464 487.569 110.293 489.793 110.895C492.017 111.478 494.059 111.77 495.918 111.77C497.522 111.77 498.698 111.496 499.445 110.949C500.193 110.384 500.566 109.664 500.566 108.789C500.566 108.242 500.411 107.768 500.102 107.367C499.81 106.948 499.327 106.529 498.652 106.109C497.996 105.69 496.228 104.833 493.348 103.539C490.741 102.354 488.781 101.206 487.469 100.094C486.174 98.9818 485.208 97.7057 484.57 96.2656C483.951 94.8255 483.641 93.1211 483.641 91.1523C483.641 87.4701 484.98 84.599 487.66 82.5391C490.34 80.4792 494.022 79.4492 498.707 79.4492C502.845 79.4492 507.065 80.4062 511.367 82.3203L508.059 90.6602C504.322 88.9466 501.095 88.0898 498.379 88.0898C496.975 88.0898 495.954 88.3359 495.316 88.8281C494.678 89.3203 494.359 89.931 494.359 90.6602C494.359 91.444 494.76 92.1458 495.562 92.7656C496.383 93.3854 498.589 94.5156 502.18 96.1562C505.625 97.7057 508.013 99.3737 509.344 101.16C510.693 102.928 511.367 105.161 511.367 107.859ZM531.82 94.8438L538.711 80.0234H550.414L537.262 104.387V120H526.379V104.715L513.227 80.0234H524.984L531.82 94.8438ZM580.875 107.859C580.875 110.339 580.246 112.544 578.988 114.477C577.73 116.391 575.917 117.885 573.547 118.961C571.177 120.018 568.397 120.547 565.207 120.547C562.546 120.547 560.312 120.365 558.508 120C556.703 119.617 554.826 118.961 552.875 118.031V108.406C554.935 109.464 557.077 110.293 559.301 110.895C561.525 111.478 563.566 111.77 565.426 111.77C567.03 111.77 568.206 111.496 568.953 110.949C569.701 110.384 570.074 109.664 570.074 108.789C570.074 108.242 569.919 107.768 569.609 107.367C569.318 106.948 568.835 106.529 568.16 106.109C567.504 105.69 565.736 104.833 562.855 103.539C560.249 102.354 558.289 101.206 556.977 100.094C555.682 98.9818 554.716 97.7057 554.078 96.2656C553.458 94.8255 553.148 93.1211 553.148 91.1523C553.148 87.4701 554.488 84.599 557.168 82.5391C559.848 80.4792 563.53 79.4492 568.215 79.4492C572.353 79.4492 576.573 80.4062 580.875 82.3203L577.566 90.6602C573.829 88.9466 570.603 88.0898 567.887 88.0898C566.483 88.0898 565.462 88.3359 564.824 88.8281C564.186 89.3203 563.867 89.931 563.867 90.6602C563.867 91.444 564.268 92.1458 565.07 92.7656C565.891 93.3854 568.096 94.5156 571.688 96.1562C575.133 97.7057 577.521 99.3737 578.852 101.16C580.201 102.928 580.875 105.161 580.875 107.859ZM604.691 120H593.891V88.8555H584.129V80.0234H614.426V88.8555H604.691V120ZM643.875 120H620.141V80.0234H643.875V88.6914H630.941V94.9805H642.918V103.648H630.941V111.195H643.875V120ZM668.293 120L660.117 91.207H659.871C660.254 96.1107 660.445 99.9206 660.445 102.637V120H650.875V80.0234H665.258L673.598 108.406H673.816L681.992 80.0234H696.402V120H686.477V102.473C686.477 101.561 686.486 100.549 686.504 99.4375C686.54 98.3255 686.668 95.6003 686.887 91.2617H686.641L678.574 120H668.293Z" fill="black"/>
</svg>
