<svg width="48" height="43" viewBox="0 0 48 43" fill="none" xmlns="http://www.w3.org/2000/svg">
<rect y="0.277832" width="46.9548" height="42.1461" rx="9" transform="rotate(-0.339013 0 0.277832)" fill="#FF5B65"/>
<rect x="11.4274" y="33.9898" width="24.4994" height="2.11505" rx="1.05753" transform="rotate(-0.339013 11.4274 33.9898)" fill="#FFDDDE"/>
<rect x="18.7251" y="31.1265" width="9.87025" height="3.8776" rx="1.9388" transform="rotate(-0.339013 18.7251 31.1265)" fill="#FFDDDE"/>
<path fill-rule="evenodd" clip-rule="evenodd" d="M12.6277 7.36782C12.8992 6.89207 13.41 6.57004 13.9971 6.56656L17.5221 6.54571C18.3982 6.54052 19.1126 7.24651 19.1178 8.12258C19.123 8.99865 18.417 9.71305 17.5409 9.71823L14.0159 9.73909C13.393 9.74277 12.8519 9.38702 12.5893 8.86624L8.45873 8.89068C7.82602 8.89443 7.31614 9.41038 7.31988 10.0431L7.42312 27.492C7.42687 28.1247 7.94282 28.6346 8.57554 28.6308L38.7145 28.4525C39.3472 28.4488 39.8571 27.9328 39.8534 27.3001L39.7501 9.85121C39.7464 9.21849 39.2304 8.70861 38.5977 8.71235L34.4672 8.73679C34.2107 9.26064 33.6738 9.62277 33.051 9.62646L29.526 9.64732C28.6499 9.6525 27.9355 8.94651 27.9303 8.07044C27.9252 7.19437 28.6312 6.47997 29.5072 6.47479L33.0323 6.45393C33.6194 6.45046 34.1339 6.76642 34.411 7.23893L38.8532 7.21265C40.07 7.20545 41.0622 8.18599 41.0694 9.40276L41.1779 27.7329C41.1851 28.9497 40.2045 29.9419 38.9878 29.9491L8.32002 30.1305C7.10326 30.1377 6.11104 29.1572 6.10384 27.9404L5.99539 9.61029C5.98819 8.39353 6.96873 7.40131 8.18549 7.39411L12.6277 7.36782Z" fill="#FFDDDE"/>
<path d="M13.4271 14.5016C13.4242 14.0149 13.8165 13.618 14.3032 13.6151L17.2113 13.5979C17.698 13.595 18.0949 13.9872 18.0978 14.4739L18.1494 23.1984C18.1523 23.6851 17.7601 24.082 17.2734 24.0848L14.3652 24.102C13.8785 24.1049 13.4816 23.7127 13.4787 23.226L13.4271 14.5016Z" fill="#FFDDDE"/>
<path d="M11.4399 21.2111C10.9532 21.214 10.5563 20.8218 10.5534 20.3351L10.5362 17.4269C10.5333 16.9402 10.9255 16.5433 11.4122 16.5404L20.1367 16.4888C20.6234 16.4859 21.0203 16.8781 21.0232 17.3649L21.0404 20.273C21.0432 20.7597 20.651 21.1566 20.1643 21.1595L11.4399 21.2111Z" fill="#FFDDDE"/>
<path d="M26.95 21.1193C26.4633 21.1222 26.0664 20.73 26.0635 20.2433L26.0463 17.3351C26.0435 16.8484 26.4357 16.4515 26.9224 16.4486L35.6468 16.397C36.1335 16.3941 36.5304 16.7864 36.5333 17.2731L36.5505 20.1812C36.5534 20.6679 36.1612 21.0648 35.6745 21.0677L26.95 21.1193Z" fill="#FFDDDE"/>
<path d="M28.9373 14.4098C28.9344 13.9231 29.3266 13.5262 29.8133 13.5233L32.7215 13.5061C33.2082 13.5032 33.6051 13.8954 33.608 14.3821L33.6596 23.1066C33.6625 23.5933 33.2702 23.9902 32.7835 23.993L29.8754 24.0102C29.3887 24.0131 28.9918 23.6209 28.9889 23.1342L28.9373 14.4098Z" fill="#FFDDDE"/>
</svg>
